<svg width="25" height="20" viewBox="0 0 25 20" fill="none" xmlns="http://www.w3.org/2000/svg">
<path d="M21.9173 11.0004C21.6439 11.0004 21.358 10.9304 21.0846 10.8804C20.5309 10.7822 19.9868 10.6518 19.4566 10.4904C18.88 10.3216 18.2463 10.3304 17.6773 10.515C17.1083 10.6996 16.6443 11.047 16.3745 11.4904L16.1011 11.9404C14.8906 11.3985 13.7783 10.7256 12.7953 9.94036C11.8194 9.14937 10.9831 8.25435 10.3098 7.28036L10.8317 7.00036C11.3827 6.78327 11.8145 6.40989 12.0439 5.95205C12.2733 5.49421 12.2842 4.98427 12.0745 4.52036C11.8772 4.09278 11.7153 3.65515 11.5898 3.21036C11.5277 2.99036 11.478 2.76036 11.4407 2.53036C11.2898 1.82598 10.8313 1.1881 10.1477 0.731596C9.46419 0.275093 8.60056 0.0299652 7.71236 0.0403564H3.98403C3.44844 0.0363098 2.91804 0.12517 2.42896 0.300887C1.93988 0.476604 1.50359 0.735052 1.1498 1.05864C0.796006 1.38222 0.533015 1.76335 0.378728 2.17607C0.224442 2.58879 0.182484 3.02342 0.255709 3.45036C0.917782 7.63974 3.29557 11.5322 7.01348 14.513C10.7314 17.4938 15.5775 19.3929 20.7863 19.9104H21.2586C22.175 19.9114 23.0599 19.6409 23.7441 19.1504C24.1373 18.8674 24.4514 18.5205 24.6656 18.1327C24.8799 17.7448 24.9894 17.3248 24.9869 16.9004V13.9004C24.9717 13.2057 24.6573 12.5369 24.0975 12.008C23.5377 11.4791 22.7671 11.123 21.9173 11.0004ZM22.5387 17.0004C22.5384 17.1423 22.5006 17.2827 22.4278 17.412C22.3549 17.5413 22.2487 17.6566 22.1161 17.7504C21.9777 17.8474 21.8153 17.9198 21.6397 17.9629C21.4641 18.0059 21.2792 18.0187 21.097 18.0004C16.4427 17.5202 12.1195 15.8068 8.80937 13.1306C5.49922 10.4545 3.3905 6.96769 2.81582 3.22036C2.79605 3.07387 2.81338 2.92569 2.86678 2.78475C2.92018 2.64381 3.00854 2.51304 3.12652 2.40036C3.24298 2.29369 3.38633 2.2082 3.54705 2.14957C3.70776 2.09095 3.88214 2.06054 4.0586 2.06036H7.78692C8.07593 2.05518 8.35813 2.13124 8.58496 2.27543C8.81179 2.41962 8.96906 2.62293 9.0297 2.85036C9.07941 3.12369 9.14155 3.39369 9.21611 3.66036C9.35968 4.1875 9.55074 4.70554 9.78779 5.21036L8.0479 5.86036C7.89914 5.91528 7.76533 5.9933 7.65414 6.08995C7.54296 6.1866 7.45659 6.29997 7.40001 6.42355C7.34343 6.54713 7.31774 6.67849 7.32442 6.81008C7.3311 6.94167 7.37002 7.0709 7.43895 7.19036C9.22755 10.2731 12.3072 12.7512 16.1384 14.1904C16.4409 14.2904 16.7803 14.2904 17.0829 14.1904C17.2379 14.1457 17.3803 14.0768 17.5019 13.9875C17.6235 13.8983 17.7219 13.7905 17.7913 13.6704L18.5618 12.2704C19.2043 12.4552 19.86 12.6088 20.5254 12.7304C20.8568 12.7904 21.1923 12.8404 21.532 12.8804C21.8147 12.9291 22.0673 13.0557 22.2465 13.2382C22.4257 13.4207 22.5202 13.6478 22.5138 13.8804L22.5387 17.0004Z" fill="white"/>
</svg>
