<svg width="32" height="32" viewBox="0 0 32 32" fill="none" xmlns="http://www.w3.org/2000/svg">
<path d="M13.3333 5C5.97333 5 0 10.9733 0 18.3333C0 25.6933 5.97333 31.6667 13.3333 31.6667C20.6933 31.6667 26.6667 25.6933 26.6667 18.3333C26.6667 10.9733 20.6933 5 13.3333 5ZM19.52 14.0667C19.32 16.1733 18.4533 21.2933 18.0133 23.6533C17.8267 24.6533 17.4533 24.9867 17.1067 25.0267C16.3333 25.0933 15.7467 24.52 15 24.0267C13.8267 23.2533 13.16 22.7733 12.0267 22.0267C10.7067 21.16 11.56 20.68 12.32 19.9067C12.52 19.7067 15.9333 16.6 16 16.32C16.0093 16.2776 16.008 16.2336 15.9964 16.1917C15.9848 16.1499 15.9631 16.1116 15.9333 16.08C15.8533 16.0133 15.7467 16.04 15.6533 16.0533C15.5333 16.08 13.6667 17.32 10.0267 19.7733C9.49333 20.1333 9.01333 20.32 8.58667 20.3067C8.10667 20.2933 7.2 20.04 6.52 19.8133C5.68 19.5467 5.02667 19.4 5.08 18.9333C5.10667 18.6933 5.44 18.4533 6.06667 18.2C9.96 16.5067 12.5467 15.3867 13.84 14.8533C17.5467 13.3067 18.3067 13.04 18.8133 13.04C18.92 13.04 19.1733 13.0667 19.3333 13.2C19.4667 13.3067 19.5067 13.4533 19.52 13.56C19.5067 13.64 19.5333 13.88 19.52 14.0667Z" fill="white"/>
</svg>
