<svg width="32" height="32" viewBox="0 0 32 32" fill="none" xmlns="http://www.w3.org/2000/svg">
<path d="M25.8546 11.2533C24.5254 10.9611 23.3231 10.2552 22.42 9.23719C21.5169 8.21913 20.9596 6.94116 20.8279 5.58667V5H16.2279V23.2267C16.2288 24.0354 15.9753 24.824 15.5032 25.4806C15.031 26.1372 14.3643 26.6287 13.5973 26.8853C12.8304 27.1419 12.0021 27.1508 11.2299 26.9105C10.4576 26.6702 9.78056 26.1931 9.29457 25.5467C8.85917 24.9745 8.59255 24.2918 8.52487 23.576C8.4572 22.8602 8.59116 22.1397 8.91161 21.496C9.23206 20.8523 9.72621 20.3112 10.3382 19.9337C10.9502 19.5562 11.6555 19.3575 12.3746 19.36C12.7722 19.3577 13.1679 19.4162 13.5479 19.5333V14.8667C13.1057 14.8119 12.66 14.7896 12.2146 14.8C10.5736 14.8438 8.98113 15.3652 7.63201 16.3004C6.2829 17.2355 5.23576 18.5437 4.6188 20.0649C4.00185 21.586 3.84187 23.2541 4.15846 24.8647C4.47504 26.4754 5.25445 27.9588 6.40124 29.1333C7.57655 30.3283 9.08056 31.1469 10.7222 31.4851C12.3638 31.8233 14.0689 31.6658 15.6208 31.0328C17.1727 30.3997 18.5014 29.3196 19.4381 27.9297C20.3747 26.5397 20.8771 24.9027 20.8812 23.2267V13.8933C22.7365 15.2186 24.9613 15.9275 27.2412 15.92V11.3867C26.7934 11.3885 26.3465 11.3438 25.9079 11.2533H25.8546Z" fill="white"/>
</svg>
