<svg width="32" height="32" viewBox="0 0 32 32" fill="none" xmlns="http://www.w3.org/2000/svg">
<path fill-rule="evenodd" clip-rule="evenodd" d="M12.696 20.737V11.7463L21.3413 16.257L12.696 20.737ZM31.68 10.1877C31.68 10.1877 31.3667 7.98234 30.408 7.01167C29.1907 5.73701 27.8267 5.73167 27.2013 5.65701C22.724 5.33301 16.0067 5.33301 16.0067 5.33301H15.9933C15.9933 5.33301 9.276 5.33301 4.79867 5.65701C4.172 5.73034 2.80933 5.73701 1.59067 7.01167C0.632 7.98234 0.32 10.1877 0.32 10.1877C0.32 10.1877 0 12.7783 0 15.3663V17.7957C0 20.385 0.32 22.9743 0.32 22.9743C0.32 22.9743 0.632 25.1783 1.59067 26.1503C2.80933 27.425 4.408 27.385 5.12 27.5183C7.68 27.7637 16 27.8397 16 27.8397C16 27.8397 22.724 27.8303 27.2013 27.5063C27.828 27.4317 29.1907 27.425 30.408 26.1503C31.368 25.1783 31.68 22.9743 31.68 22.9743C31.68 22.9743 32 20.385 32 17.7943V15.3677C32 12.7783 31.68 10.1877 31.68 10.1877Z" fill="white"/>
</svg>
